<?xml version="1.0" standalone="no"?>
<!DOCTYPE svg PUBLIC "-//W3C//DTD SVG 20010904//EN"
 "http://www.w3.org/TR/2001/REC-SVG-20010904/DTD/svg10.dtd">
<svg version="1.0" xmlns="http://www.w3.org/2000/svg"
 width="231.000000pt" height="233.000000pt" viewBox="0 0 231.000000 233.000000"
 preserveAspectRatio="xMidYMid meet">

<g transform="translate(0.000000,233.000000) scale(0.100000,-0.100000)"
fill="#000000" stroke="none">
<path d="M490 2294 c0 -25 17 -34 66 -34 49 0 99 -24 121 -56 17 -27 18 -74
21 -854 3 -863 0 -937 -40 -1060 -27 -82 -106 -166 -183 -193 -64 -22 -201
-23 -252 -2 l-37 16 41 20 c66 33 90 121 51 192 -17 33 -70 57 -126 57 -48 0
-58 -4 -87 -33 -40 -40 -53 -92 -36 -148 17 -56 54 -94 127 -130 59 -29 77
-33 172 -37 124 -5 210 12 300 57 156 79 247 219 288 443 15 80 18 196 23 858
5 693 8 769 23 803 19 42 64 67 122 67 49 0 66 9 66 34 l0 22 -330 0 -330 0 0
-22z"/>
<path d="M1200 2289 c0 -24 4 -27 51 -32 59 -7 141 -42 185 -80 39 -33 89
-126 104 -197 8 -34 11 -101 8 -170 -6 -149 -29 -214 -102 -285 -76 -74 -144
-96 -318 -103 -137 -5 -138 -5 -138 -28 0 -24 1 -24 113 -24 147 0 201 -16
254 -73 52 -56 72 -111 123 -337 23 -102 52 -222 66 -267 42 -140 112 -207
231 -219 109 -12 208 34 275 128 19 27 19 31 5 45 -14 15 -20 12 -61 -30 -39
-41 -51 -47 -86 -47 -88 0 -98 20 -174 328 -30 122 -65 246 -79 275 -45 99
-132 162 -259 189 -32 7 -58 15 -58 18 0 3 27 11 59 18 95 20 197 77 271 151
71 71 100 123 125 216 74 285 -138 517 -497 543 l-98 8 0 -27z"/>
<path d="M2155 625 c-16 -15 -25 -36 -25 -55 0 -38 39 -80 74 -80 39 0 79 41
79 80 0 24 -7 40 -27 57 -35 30 -71 29 -101 -2z"/>
</g>
</svg>
